Coordinates
version=1
nRows=12
nColumns=34
inDegrees=yes

Units are S.I. units (second, meters, Newtons, ...)
If the header above contains a line with 'inDegrees', this indicates whether rotational values are in degrees (yes) or radians (no).

endheader
time	pelvis_tilt	pelvis_list	pelvis_rotation	pelvis_tx	pelvis_ty	pelvis_tz	hip_flexion_r	hip_adduction_r	hip_rotation_r	knee_angle_r	ankle_angle_r	subtalar_angle_r	mtp_angle_r	hip_flexion_l	hip_adduction_l	hip_rotation_l	knee_angle_l	ankle_angle_l	subtalar_angle_l	mtp_angle_l	lumbar_extension	lumbar_bending	lumbar_rotation	arm_flex_r	arm_add_r	arm_rot_r	elbow_flex_r	pro_sup_r	arm_flex_l	arm_add_l	arm_rot_l	elbow_flex_l	pro_sup_l
      3.60833330	      1.32143237	      0.46081281	   -178.00700298	      0.17562937	      1.01261537	      0.18225241	     32.28149146	     -2.83782486	      3.73811019	    119.59410514	      5.50850619	     -9.97468866	      0.00000000	     15.39839093	      4.43411304	     -2.38373258	     40.67232259	     11.47707264	    -15.36667634	      0.00000000	    -24.75269834	     -3.33195672	     -9.98265206	    -16.51214923	    -19.97594186	      2.02233402	     80.62467960	     89.75308698	     16.04977324	    -26.84297137	     -1.99150409	     96.37668332	     88.87470579
      3.61666670	      1.45445036	      1.01745602	   -178.00319908	      0.17593495	      1.01847892	      0.18330070	     34.92195961	     -2.80332735	      2.76975255	    116.61291707	      5.83453281	    -10.47403402	      0.00000000	     12.94453444	      3.71818680	     -2.43613056	     39.18824001	     11.16564578	    -14.64874307	      0.00000000	    -24.57741190	     -2.73901070	    -11.33899517	    -18.15158422	    -20.48852423	      2.11965895	     81.39925820	     89.65488865	     17.32610636	    -26.07640039	     -1.68783585	     97.95500475	     88.90550464
      3.62500000	      1.64891611	      1.71457064	   -178.03754108	      0.17589574	      1.02423636	      0.18380730	     37.20961309	     -2.54051469	      1.51677181	    113.12063128	      5.64759662	    -12.11300518	      0.00000000	     10.36558568	      2.72625789	     -2.83971302	     37.31471486	     10.46588232	    -13.67460755	      0.00000000	    -24.30270853	     -1.90728588	    -12.60978830	    -19.88280405	    -21.08722535	      2.18448797	     82.66610711	     89.61629645	     18.43710866	    -25.43490697	     -1.26985620	     99.90511692	     88.98063751
      3.63333330	      1.84558614	      2.37642877	   -178.09993826	      0.17502050	      1.03138400	      0.18389766	     39.02902999	     -2.22200947	      0.06315159	    109.01289901	      4.90501633	    -14.95040998	      0.00000000	      7.55213731	      1.72107936	     -3.49500948	     34.90369636	      9.27982119	    -12.27833005	      0.00000000	    -23.91466797	     -1.06338070	    -14.00076542	    -21.48806888	    -21.61586670	      2.28709063	     83.98212397	     89.64540972	     19.89325449	    -24.78161732	     -0.69093203	    101.63322837	     89.06623840
      3.64166670	      1.90455864	      2.96816019	   -178.48573047	      0.17325866	      1.03887061	      0.18293132	     40.24777893	     -1.66756129	     -1.29360839	    104.35733139	      4.15725535	    -18.59394189	      0.00000000	      4.33531078	      0.67411411	     -4.80106687	     32.02419198	      7.86048353	     -9.99357530	      0.00000000	    -23.64632234	     -0.30551842	    -14.81883194	    -23.36529394	    -21.66366132	      1.46696060	     85.53742865	     89.76769639	     23.66971141	    -23.89024449	      1.50788694	    100.87054111	     89.09795328
      3.65000000	      2.29850228	      3.43090393	   -178.64893513	      0.17123828	      1.04575808	      0.18210071	     41.40588151	     -1.33077018	     -2.81735497	     99.18696151	      3.49437334	    -22.41687664	      0.00000000	      1.53088746	     -0.12240283	     -5.75676338	     29.20033087	      5.90275836	     -8.09394616	      0.00000000	    -22.85807439	      0.26496000	    -15.75829169	    -25.28247818	    -21.66748907	      0.94802807	     86.86438527	     89.99164316	     26.64362838	    -22.85558497	      3.23371616	    100.09070716	     88.81349149
      3.65833330	      2.82879257	      3.84871460	   -178.67577173	      0.16883850	      1.05214498	      0.18139122	     42.29359373	     -0.97519902	     -4.33523068	     93.47657151	      3.10953347	    -25.01781157	      0.00000000	     -1.06509668	     -0.88710083	     -6.59615584	     26.44104563	      3.54292549	     -6.19539953	      0.00000000	    -21.72438512	      0.89050231	    -17.30345358	    -26.72590901	    -21.82415941	      0.85866015	     88.23473417	     90.13591430	     28.14953991	    -22.52759886	      4.04185576	     99.76564359	     88.58326661
      3.66666670	      3.32312743	      3.87961289	   -178.72030360	      0.16633366	      1.05836750	      0.18055148	     42.84557467	     -0.80264327	     -5.47908970	     87.56737931	      1.99045897	    -27.71435159	      0.00000000	     -3.56183434	     -1.25688330	     -7.60603511	     23.78025330	      1.08743606	     -3.73321430	      0.00000000	    -20.79046338	      0.91427244	    -18.09035053	    -28.80275369	    -21.11544082	     -0.08075179	     89.50506682	     90.46586345	     29.91281690	    -21.79650393	      5.10282909	     99.84828778	     87.75238255
      3.67500000	      4.08136943	      3.59745511	   -178.81954033	      0.16325997	      1.06399423	      0.17973209	     43.64111074	     -0.70601642	     -6.20555941	     81.48669355	      1.38337814	    -29.03797448	      0.00000000	     -5.74276618	     -1.19509690	     -8.43770978	     21.04795131	     -1.92409288	     -1.74590620	      0.00000000	    -19.46697797	      0.67124713	    -19.35029972	    -30.39914947	    -20.56379869	     -0.47897543	     90.79128500	     90.71944014	     29.93300892	    -22.12298563	      5.26949933	    100.97906883	     87.21577174
      3.68333330	      4.96151620	      3.15991535	   -178.60267659	      0.15925944	      1.06910796	      0.17952624	     44.33161972	     -0.72991029	     -6.72815591	     75.15143129	      1.01409526	    -28.79086115	      0.00000000	     -7.66803888	     -0.95411633	     -8.70185765	     18.51789616	     -5.17045048	      0.01879661	      0.00000000	    -17.90099956	      0.26179738	    -21.00734657	    -31.73189931	    -20.19511580	     -0.43629708	     91.25172021	     90.80097564	     29.99358376	    -22.06620753	      5.50597184	    101.58809253	     87.08760708
      3.69166670	      5.94459296	      2.43131004	   -178.53687940	      0.15447873	      1.07372627	      0.17900774	     44.89401423	     -0.75430146	     -6.62470916	     68.69540685	     -0.63546834	    -28.06197211	      0.00000000	     -9.31117251	     -0.41463262	     -9.10683801	     16.36736280	     -8.31147637	      1.76878401	      0.00000000	    -16.36620810	     -0.23782169	    -22.99284539	    -33.10059089	    -19.91680491	     -0.74481134	     92.81427624	     91.22512101	     29.10479379	    -22.97893459	      4.98833610	    103.29100662	     86.38187991
      3.70000000	      6.89977832	      1.64376187	   -178.27814976	      0.14910833	      1.07893925	      0.17907737	     45.00286743	     -0.93995625	     -6.46997289	     61.85417087	     -2.64056067	    -26.15299216	      0.00000000	    -10.58789410	      0.19343307	     -8.76653924	     14.99742339	    -11.49035957	      2.62668070	      0.00000000	    -14.72594586	     -0.83964103	    -25.76739015	    -33.39758217	    -20.35067453	      0.19910403	     93.13487050	     92.56806597	     27.16663255	    -23.94575533	      3.40764726	    105.30858028	     84.51547160
